<svg xmlns="http://www.w3.org/2000/svg" version="1.1" xmlns:xlink="http://www.w3.org/1999/xlink" xmlns:svgjs="http://svgjs.dev/svgjs" width="1440" height="560" preserveAspectRatio="none" viewBox="0 0 1440 560"><g mask="url(&quot;#SvgjsMask1000&quot;)" fill="none"><rect width="1440" height="560" x="0" y="0" fill="#0e2a47"></rect><path d="M54.27 -45.1L119.22 -7.6L119.22 67.4L54.27 104.9L-10.68 67.4L-10.68 -7.6zM119.22 67.4L184.18 104.9L184.18 179.9L119.22 217.4L54.27 179.9L54.27 104.9zM54.27 179.9L119.22 217.4L119.22 292.4L54.27 329.9L-10.68 292.4L-10.68 217.4zM54.27 404.9L119.22 442.4L119.22 517.4L54.27 554.9L-10.68 517.4L-10.68 442.4zM249.13 292.4L314.08 329.9L314.08 404.9L249.13 442.4L184.18 404.9L184.18 329.9zM249.13 517.4L314.08 554.9L314.08 629.9L249.13 667.4L184.18 629.9L184.18 554.9zM314.08 -45.1L379.04 -7.6L379.04 67.4L314.08 104.9L249.13 67.4L249.13 -7.6zM379.04 67.4L443.99 104.9L443.99 179.9L379.04 217.4L314.08 179.9L314.08 104.9zM314.08 179.9L379.04 217.4L379.04 292.4L314.08 329.9L249.13 292.4L249.13 217.4zM314.08 404.9L379.04 442.4L379.04 517.4L314.08 554.9L249.13 517.4L249.13 442.4zM379.04 517.4L443.99 554.9L443.99 629.9L379.04 667.4L314.08 629.9L314.08 554.9zM443.99 404.9L508.95 442.4L508.95 517.4L443.99 554.9L379.04 517.4L379.04 442.4zM638.85 292.4L703.81 329.9L703.81 404.9L638.85 442.4L573.9 404.9L573.9 329.9zM638.85 517.4L703.81 554.9L703.81 629.9L638.85 667.4L573.9 629.9L573.9 554.9zM703.81 -45.1L768.76 -7.6L768.76 67.4L703.81 104.9L638.85 67.4L638.85 -7.6zM703.81 179.9L768.76 217.4L768.76 292.4L703.81 329.9L638.85 292.4L638.85 217.4zM768.76 292.4L833.72 329.9L833.72 404.9L768.76 442.4L703.81 404.9L703.81 329.9zM768.76 517.4L833.72 554.9L833.72 629.9L768.76 667.4L703.81 629.9L703.81 554.9zM833.71 179.9L898.67 217.4L898.67 292.4L833.71 329.9L768.76 292.4L768.76 217.4zM833.71 404.9L898.67 442.4L898.67 517.4L833.71 554.9L768.76 517.4L768.76 442.4zM1028.58 67.4L1093.53 104.9L1093.53 179.9L1028.58 217.4L963.62 179.9L963.62 104.9zM963.62 404.9L1028.58 442.4L1028.58 517.4L963.62 554.9L898.67 517.4L898.67 442.4zM1028.58 517.4L1093.53 554.9L1093.53 629.9L1028.58 667.4L963.62 629.9L963.62 554.9zM1158.48 67.4L1223.44 104.9L1223.44 179.9L1158.48 217.4L1093.53 179.9L1093.53 104.9zM1158.48 292.4L1223.44 329.9L1223.44 404.9L1158.48 442.4L1093.53 404.9L1093.53 329.9zM1418.3 67.4L1483.25 104.9L1483.25 179.9L1418.3 217.4L1353.35 179.9L1353.35 104.9zM1353.35 179.9L1418.3 217.4L1418.3 292.4L1353.35 329.9L1288.39 292.4L1288.39 217.4zM1418.3 292.4L1483.25 329.9L1483.25 404.9L1418.3 442.4L1353.35 404.9L1353.35 329.9zM1483.25 -45.1L1548.21 -7.6L1548.21 67.4L1483.25 104.9L1418.3 67.4L1418.3 -7.6zM1548.21 292.4L1613.16 329.9L1613.16 404.9L1548.21 442.4L1483.25 404.9L1483.25 329.9zM1548.21 517.4L1613.16 554.9L1613.16 629.9L1548.21 667.4L1483.25 629.9L1483.25 554.9z" stroke="#03305d" stroke-width="2"></path><path d="M46.77 -45.1 a7.5 7.5 0 1 0 15 0 a7.5 7.5 0 1 0 -15 0zM111.72 -7.6 a7.5 7.5 0 1 0 15 0 a7.5 7.5 0 1 0 -15 0zM111.72 67.4 a7.5 7.5 0 1 0 15 0 a7.5 7.5 0 1 0 -15 0zM46.77 104.9 a7.5 7.5 0 1 0 15 0 a7.5 7.5 0 1 0 -15 0zM-18.18 67.4 a7.5 7.5 0 1 0 15 0 a7.5 7.5 0 1 0 -15 0zM-18.18 -7.6 a7.5 7.5 0 1 0 15 0 a7.5 7.5 0 1 0 -15 0zM176.68 104.9 a7.5 7.5 0 1 0 15 0 a7.5 7.5 0 1 0 -15 0zM176.68 179.9 a7.5 7.5 0 1 0 15 0 a7.5 7.5 0 1 0 -15 0zM111.72 217.4 a7.5 7.5 0 1 0 15 0 a7.5 7.5 0 1 0 -15 0zM46.77 179.9 a7.5 7.5 0 1 0 15 0 a7.5 7.5 0 1 0 -15 0zM111.72 292.4 a7.5 7.5 0 1 0 15 0 a7.5 7.5 0 1 0 -15 0zM46.77 329.9 a7.5 7.5 0 1 0 15 0 a7.5 7.5 0 1 0 -15 0zM-18.18 292.4 a7.5 7.5 0 1 0 15 0 a7.5 7.5 0 1 0 -15 0zM-18.18 217.4 a7.5 7.5 0 1 0 15 0 a7.5 7.5 0 1 0 -15 0zM46.77 404.9 a7.5 7.5 0 1 0 15 0 a7.5 7.5 0 1 0 -15 0zM111.72 442.4 a7.5 7.5 0 1 0 15 0 a7.5 7.5 0 1 0 -15 0zM111.72 517.4 a7.5 7.5 0 1 0 15 0 a7.5 7.5 0 1 0 -15 0zM46.77 554.9 a7.5 7.5 0 1 0 15 0 a7.5 7.5 0 1 0 -15 0zM-18.18 517.4 a7.5 7.5 0 1 0 15 0 a7.5 7.5 0 1 0 -15 0zM-18.18 442.4 a7.5 7.5 0 1 0 15 0 a7.5 7.5 0 1 0 -15 0zM241.63 292.4 a7.5 7.5 0 1 0 15 0 a7.5 7.5 0 1 0 -15 0zM306.58 329.9 a7.5 7.5 0 1 0 15 0 a7.5 7.5 0 1 0 -15 0zM306.58 404.9 a7.5 7.5 0 1 0 15 0 a7.5 7.5 0 1 0 -15 0zM241.63 442.4 a7.5 7.5 0 1 0 15 0 a7.5 7.5 0 1 0 -15 0zM176.68 404.9 a7.5 7.5 0 1 0 15 0 a7.5 7.5 0 1 0 -15 0zM176.68 329.9 a7.5 7.5 0 1 0 15 0 a7.5 7.5 0 1 0 -15 0zM241.63 517.4 a7.5 7.5 0 1 0 15 0 a7.5 7.5 0 1 0 -15 0zM306.58 554.9 a7.5 7.5 0 1 0 15 0 a7.5 7.5 0 1 0 -15 0zM306.58 629.9 a7.5 7.5 0 1 0 15 0 a7.5 7.5 0 1 0 -15 0zM241.63 667.4 a7.5 7.5 0 1 0 15 0 a7.5 7.5 0 1 0 -15 0zM176.68 629.9 a7.5 7.5 0 1 0 15 0 a7.5 7.5 0 1 0 -15 0zM176.68 554.9 a7.5 7.5 0 1 0 15 0 a7.5 7.5 0 1 0 -15 0zM306.58 -45.1 a7.5 7.5 0 1 0 15 0 a7.5 7.5 0 1 0 -15 0zM371.54 -7.6 a7.5 7.5 0 1 0 15 0 a7.5 7.5 0 1 0 -15 0zM371.54 67.4 a7.5 7.5 0 1 0 15 0 a7.5 7.5 0 1 0 -15 0zM306.58 104.9 a7.5 7.5 0 1 0 15 0 a7.5 7.5 0 1 0 -15 0zM241.63 67.4 a7.5 7.5 0 1 0 15 0 a7.5 7.5 0 1 0 -15 0zM241.63 -7.6 a7.5 7.5 0 1 0 15 0 a7.5 7.5 0 1 0 -15 0zM436.49 104.9 a7.5 7.5 0 1 0 15 0 a7.5 7.5 0 1 0 -15 0zM436.49 179.9 a7.5 7.5 0 1 0 15 0 a7.5 7.5 0 1 0 -15 0zM371.54 217.4 a7.5 7.5 0 1 0 15 0 a7.5 7.5 0 1 0 -15 0zM306.58 179.9 a7.5 7.5 0 1 0 15 0 a7.5 7.5 0 1 0 -15 0zM371.54 292.4 a7.5 7.5 0 1 0 15 0 a7.5 7.5 0 1 0 -15 0zM241.63 217.4 a7.5 7.5 0 1 0 15 0 a7.5 7.5 0 1 0 -15 0zM371.54 442.4 a7.5 7.5 0 1 0 15 0 a7.5 7.5 0 1 0 -15 0zM371.54 517.4 a7.5 7.5 0 1 0 15 0 a7.5 7.5 0 1 0 -15 0zM436.49 554.9 a7.5 7.5 0 1 0 15 0 a7.5 7.5 0 1 0 -15 0zM436.49 629.9 a7.5 7.5 0 1 0 15 0 a7.5 7.5 0 1 0 -15 0zM371.54 667.4 a7.5 7.5 0 1 0 15 0 a7.5 7.5 0 1 0 -15 0zM436.49 404.9 a7.5 7.5 0 1 0 15 0 a7.5 7.5 0 1 0 -15 0zM501.45 442.4 a7.5 7.5 0 1 0 15 0 a7.5 7.5 0 1 0 -15 0zM501.45 517.4 a7.5 7.5 0 1 0 15 0 a7.5 7.5 0 1 0 -15 0zM631.35 292.4 a7.5 7.5 0 1 0 15 0 a7.5 7.5 0 1 0 -15 0zM696.31 329.9 a7.5 7.5 0 1 0 15 0 a7.5 7.5 0 1 0 -15 0zM696.31 404.9 a7.5 7.5 0 1 0 15 0 a7.5 7.5 0 1 0 -15 0zM631.35 442.4 a7.5 7.5 0 1 0 15 0 a7.5 7.5 0 1 0 -15 0zM566.4 404.9 a7.5 7.5 0 1 0 15 0 a7.5 7.5 0 1 0 -15 0zM566.4 329.9 a7.5 7.5 0 1 0 15 0 a7.5 7.5 0 1 0 -15 0zM631.35 517.4 a7.5 7.5 0 1 0 15 0 a7.5 7.5 0 1 0 -15 0zM696.31 554.9 a7.5 7.5 0 1 0 15 0 a7.5 7.5 0 1 0 -15 0zM696.31 629.9 a7.5 7.5 0 1 0 15 0 a7.5 7.5 0 1 0 -15 0zM631.35 667.4 a7.5 7.5 0 1 0 15 0 a7.5 7.5 0 1 0 -15 0zM566.4 629.9 a7.5 7.5 0 1 0 15 0 a7.5 7.5 0 1 0 -15 0zM566.4 554.9 a7.5 7.5 0 1 0 15 0 a7.5 7.5 0 1 0 -15 0zM696.31 -45.1 a7.5 7.5 0 1 0 15 0 a7.5 7.5 0 1 0 -15 0zM761.26 -7.6 a7.5 7.5 0 1 0 15 0 a7.5 7.5 0 1 0 -15 0zM761.26 67.4 a7.5 7.5 0 1 0 15 0 a7.5 7.5 0 1 0 -15 0zM696.31 104.9 a7.5 7.5 0 1 0 15 0 a7.5 7.5 0 1 0 -15 0zM631.35 67.4 a7.5 7.5 0 1 0 15 0 a7.5 7.5 0 1 0 -15 0zM631.35 -7.6 a7.5 7.5 0 1 0 15 0 a7.5 7.5 0 1 0 -15 0zM696.31 179.9 a7.5 7.5 0 1 0 15 0 a7.5 7.5 0 1 0 -15 0zM761.26 217.4 a7.5 7.5 0 1 0 15 0 a7.5 7.5 0 1 0 -15 0zM761.26 292.4 a7.5 7.5 0 1 0 15 0 a7.5 7.5 0 1 0 -15 0zM631.35 217.4 a7.5 7.5 0 1 0 15 0 a7.5 7.5 0 1 0 -15 0zM826.22 329.9 a7.5 7.5 0 1 0 15 0 a7.5 7.5 0 1 0 -15 0zM826.22 404.9 a7.5 7.5 0 1 0 15 0 a7.5 7.5 0 1 0 -15 0zM761.26 442.4 a7.5 7.5 0 1 0 15 0 a7.5 7.5 0 1 0 -15 0zM761.26 517.4 a7.5 7.5 0 1 0 15 0 a7.5 7.5 0 1 0 -15 0zM826.22 554.9 a7.5 7.5 0 1 0 15 0 a7.5 7.5 0 1 0 -15 0zM826.22 629.9 a7.5 7.5 0 1 0 15 0 a7.5 7.5 0 1 0 -15 0zM761.26 667.4 a7.5 7.5 0 1 0 15 0 a7.5 7.5 0 1 0 -15 0zM826.21 179.9 a7.5 7.5 0 1 0 15 0 a7.5 7.5 0 1 0 -15 0zM891.17 217.4 a7.5 7.5 0 1 0 15 0 a7.5 7.5 0 1 0 -15 0zM891.17 292.4 a7.5 7.5 0 1 0 15 0 a7.5 7.5 0 1 0 -15 0zM826.21 329.9 a7.5 7.5 0 1 0 15 0 a7.5 7.5 0 1 0 -15 0zM826.21 404.9 a7.5 7.5 0 1 0 15 0 a7.5 7.5 0 1 0 -15 0zM891.17 442.4 a7.5 7.5 0 1 0 15 0 a7.5 7.5 0 1 0 -15 0zM891.17 517.4 a7.5 7.5 0 1 0 15 0 a7.5 7.5 0 1 0 -15 0zM826.21 554.9 a7.5 7.5 0 1 0 15 0 a7.5 7.5 0 1 0 -15 0zM1021.08 67.4 a7.5 7.5 0 1 0 15 0 a7.5 7.5 0 1 0 -15 0zM1086.03 104.9 a7.5 7.5 0 1 0 15 0 a7.5 7.5 0 1 0 -15 0zM1086.03 179.9 a7.5 7.5 0 1 0 15 0 a7.5 7.5 0 1 0 -15 0zM1021.08 217.4 a7.5 7.5 0 1 0 15 0 a7.5 7.5 0 1 0 -15 0zM956.12 179.9 a7.5 7.5 0 1 0 15 0 a7.5 7.5 0 1 0 -15 0zM956.12 104.9 a7.5 7.5 0 1 0 15 0 a7.5 7.5 0 1 0 -15 0zM956.12 404.9 a7.5 7.5 0 1 0 15 0 a7.5 7.5 0 1 0 -15 0zM1021.08 442.4 a7.5 7.5 0 1 0 15 0 a7.5 7.5 0 1 0 -15 0zM1021.08 517.4 a7.5 7.5 0 1 0 15 0 a7.5 7.5 0 1 0 -15 0zM956.12 554.9 a7.5 7.5 0 1 0 15 0 a7.5 7.5 0 1 0 -15 0zM1086.03 554.9 a7.5 7.5 0 1 0 15 0 a7.5 7.5 0 1 0 -15 0zM1086.03 629.9 a7.5 7.5 0 1 0 15 0 a7.5 7.5 0 1 0 -15 0zM1021.08 667.4 a7.5 7.5 0 1 0 15 0 a7.5 7.5 0 1 0 -15 0zM956.12 629.9 a7.5 7.5 0 1 0 15 0 a7.5 7.5 0 1 0 -15 0zM1150.98 67.4 a7.5 7.5 0 1 0 15 0 a7.5 7.5 0 1 0 -15 0zM1215.94 104.9 a7.5 7.5 0 1 0 15 0 a7.5 7.5 0 1 0 -15 0zM1215.94 179.9 a7.5 7.5 0 1 0 15 0 a7.5 7.5 0 1 0 -15 0zM1150.98 217.4 a7.5 7.5 0 1 0 15 0 a7.5 7.5 0 1 0 -15 0zM1150.98 292.4 a7.5 7.5 0 1 0 15 0 a7.5 7.5 0 1 0 -15 0zM1215.94 329.9 a7.5 7.5 0 1 0 15 0 a7.5 7.5 0 1 0 -15 0zM1215.94 404.9 a7.5 7.5 0 1 0 15 0 a7.5 7.5 0 1 0 -15 0zM1150.98 442.4 a7.5 7.5 0 1 0 15 0 a7.5 7.5 0 1 0 -15 0zM1086.03 404.9 a7.5 7.5 0 1 0 15 0 a7.5 7.5 0 1 0 -15 0zM1086.03 329.9 a7.5 7.5 0 1 0 15 0 a7.5 7.5 0 1 0 -15 0zM1410.8 67.4 a7.5 7.5 0 1 0 15 0 a7.5 7.5 0 1 0 -15 0zM1475.75 104.9 a7.5 7.5 0 1 0 15 0 a7.5 7.5 0 1 0 -15 0zM1475.75 179.9 a7.5 7.5 0 1 0 15 0 a7.5 7.5 0 1 0 -15 0zM1410.8 217.4 a7.5 7.5 0 1 0 15 0 a7.5 7.5 0 1 0 -15 0zM1345.85 179.9 a7.5 7.5 0 1 0 15 0 a7.5 7.5 0 1 0 -15 0zM1345.85 104.9 a7.5 7.5 0 1 0 15 0 a7.5 7.5 0 1 0 -15 0zM1410.8 292.4 a7.5 7.5 0 1 0 15 0 a7.5 7.5 0 1 0 -15 0zM1345.85 329.9 a7.5 7.5 0 1 0 15 0 a7.5 7.5 0 1 0 -15 0zM1280.89 292.4 a7.5 7.5 0 1 0 15 0 a7.5 7.5 0 1 0 -15 0zM1280.89 217.4 a7.5 7.5 0 1 0 15 0 a7.5 7.5 0 1 0 -15 0zM1475.75 329.9 a7.5 7.5 0 1 0 15 0 a7.5 7.5 0 1 0 -15 0zM1475.75 404.9 a7.5 7.5 0 1 0 15 0 a7.5 7.5 0 1 0 -15 0zM1410.8 442.4 a7.5 7.5 0 1 0 15 0 a7.5 7.5 0 1 0 -15 0zM1345.85 404.9 a7.5 7.5 0 1 0 15 0 a7.5 7.5 0 1 0 -15 0zM1475.75 -45.1 a7.5 7.5 0 1 0 15 0 a7.5 7.5 0 1 0 -15 0zM1540.71 -7.6 a7.5 7.5 0 1 0 15 0 a7.5 7.5 0 1 0 -15 0zM1540.71 67.4 a7.5 7.5 0 1 0 15 0 a7.5 7.5 0 1 0 -15 0zM1410.8 -7.6 a7.5 7.5 0 1 0 15 0 a7.5 7.5 0 1 0 -15 0zM1540.71 292.4 a7.5 7.5 0 1 0 15 0 a7.5 7.5 0 1 0 -15 0zM1605.66 329.9 a7.5 7.5 0 1 0 15 0 a7.5 7.5 0 1 0 -15 0zM1605.66 404.9 a7.5 7.5 0 1 0 15 0 a7.5 7.5 0 1 0 -15 0zM1540.71 442.4 a7.5 7.5 0 1 0 15 0 a7.5 7.5 0 1 0 -15 0zM1540.71 517.4 a7.5 7.5 0 1 0 15 0 a7.5 7.5 0 1 0 -15 0zM1605.66 554.9 a7.5 7.5 0 1 0 15 0 a7.5 7.5 0 1 0 -15 0zM1605.66 629.9 a7.5 7.5 0 1 0 15 0 a7.5 7.5 0 1 0 -15 0zM1540.71 667.4 a7.5 7.5 0 1 0 15 0 a7.5 7.5 0 1 0 -15 0zM1475.75 629.9 a7.5 7.5 0 1 0 15 0 a7.5 7.5 0 1 0 -15 0zM1475.75 554.9 a7.5 7.5 0 1 0 15 0 a7.5 7.5 0 1 0 -15 0z" fill="#03305d"></path><path d="M75.19 67.45L118.5 92.45L118.5 142.45L75.19 167.45L31.89 142.45L31.89 92.45zM161.8 67.45L205.1 92.45L205.1 142.45L161.8 167.45L118.5 142.45L118.5 92.45zM118.5 292.45L161.8 317.45L161.8 367.45L118.5 392.45L75.19 367.45L75.19 317.45zM161.8 517.45L205.1 542.45L205.1 592.45L161.8 617.45L118.5 592.45L118.5 542.45zM248.4 67.45L291.7 92.45L291.7 142.45L248.4 167.45L205.1 142.45L205.1 92.45zM248.4 217.45L291.7 242.45L291.7 292.45L248.4 317.45L205.1 292.45L205.1 242.45zM205.1 292.45L248.4 317.45L248.4 367.45L205.1 392.45L161.8 367.45L161.8 317.45zM248.4 517.45L291.7 542.45L291.7 592.45L248.4 617.45L205.1 592.45L205.1 542.45zM335.01 367.45L378.31 392.45L378.31 442.45L335.01 467.45L291.7 442.45L291.7 392.45zM421.61 67.45L464.92 92.45L464.92 142.45L421.61 167.45L378.31 142.45L378.31 92.45zM421.61 217.45L464.92 242.45L464.92 292.45L421.61 317.45L378.31 292.45L378.31 242.45zM464.92 -7.55L508.22 17.45L508.22 67.45L464.92 92.45L421.61 67.45L421.61 17.45zM464.92 142.45L508.22 167.45L508.22 217.45L464.92 242.45L421.61 217.45L421.61 167.45zM508.22 217.45L551.52 242.45L551.52 292.45L508.22 317.45L464.92 292.45L464.92 242.45zM464.92 292.45L508.22 317.45L508.22 367.45L464.92 392.45L421.61 367.45L421.61 317.45zM594.82 67.45L638.13 92.45L638.13 142.45L594.82 167.45L551.52 142.45L551.52 92.45zM594.82 217.45L638.13 242.45L638.13 292.45L594.82 317.45L551.52 292.45L551.52 242.45zM594.82 367.45L638.13 392.45L638.13 442.45L594.82 467.45L551.52 442.45L551.52 392.45zM638.13 142.45L681.43 167.45L681.43 217.45L638.13 242.45L594.82 217.45L594.82 167.45zM768.03 217.45L811.34 242.45L811.34 292.45L768.03 317.45L724.73 292.45L724.73 242.45zM724.73 292.45L768.03 317.45L768.03 367.45L724.73 392.45L681.43 367.45L681.43 317.45zM724.73 442.45L768.03 467.45L768.03 517.45L724.73 542.45L681.43 517.45L681.43 467.45zM854.64 367.45L897.94 392.45L897.94 442.45L854.64 467.45L811.34 442.45L811.34 392.45zM897.94 142.45L941.24 167.45L941.24 217.45L897.94 242.45L854.64 217.45L854.64 167.45zM897.94 292.45L941.24 317.45L941.24 367.45L897.94 392.45L854.64 367.45L854.64 317.45zM941.24 367.45L984.55 392.45L984.55 442.45L941.24 467.45L897.94 442.45L897.94 392.45zM941.24 517.45L984.55 542.45L984.55 592.45L941.24 617.45L897.94 592.45L897.94 542.45zM984.55 -7.55L1027.85 17.45L1027.85 67.45L984.55 92.45L941.24 67.45L941.24 17.45zM1027.85 67.45L1071.15 92.45L1071.15 142.45L1027.85 167.45L984.55 142.45L984.55 92.45zM1027.85 367.45L1071.15 392.45L1071.15 442.45L1027.85 467.45L984.55 442.45L984.55 392.45zM984.55 442.45L1027.85 467.45L1027.85 517.45L984.55 542.45L941.24 517.45L941.24 467.45zM1027.85 517.45L1071.15 542.45L1071.15 592.45L1027.85 617.45L984.55 592.45L984.55 542.45zM1071.15 -7.55L1114.45 17.45L1114.45 67.45L1071.15 92.45L1027.85 67.45L1027.85 17.45zM1071.15 142.45L1114.45 167.45L1114.45 217.45L1071.15 242.45L1027.85 217.45L1027.85 167.45zM1114.45 217.45L1157.76 242.45L1157.76 292.45L1114.45 317.45L1071.15 292.45L1071.15 242.45zM1071.15 292.45L1114.45 317.45L1114.45 367.45L1071.15 392.45L1027.85 367.45L1027.85 317.45zM1114.45 367.45L1157.76 392.45L1157.76 442.45L1114.45 467.45L1071.15 442.45L1071.15 392.45zM1071.15 442.45L1114.45 467.45L1114.45 517.45L1071.15 542.45L1027.85 517.45L1027.85 467.45zM1201.06 217.45L1244.36 242.45L1244.36 292.45L1201.06 317.45L1157.76 292.45L1157.76 242.45zM1201.06 367.45L1244.36 392.45L1244.36 442.45L1201.06 467.45L1157.76 442.45L1157.76 392.45zM1287.66 367.45L1330.97 392.45L1330.97 442.45L1287.66 467.45L1244.36 442.45L1244.36 392.45zM1244.36 442.45L1287.66 467.45L1287.66 517.45L1244.36 542.45L1201.06 517.45L1201.06 467.45zM1330.97 -7.55L1374.27 17.45L1374.27 67.45L1330.97 92.45L1287.66 67.45L1287.66 17.45zM1374.27 67.45L1417.57 92.45L1417.57 142.45L1374.27 167.45L1330.97 142.45L1330.97 92.45zM1374.27 517.45L1417.57 542.45L1417.57 592.45L1374.27 617.45L1330.97 592.45L1330.97 542.45zM1417.57 -7.55L1460.87 17.45L1460.87 67.45L1417.57 92.45L1374.27 67.45L1374.27 17.45zM1417.57 292.45L1460.87 317.45L1460.87 367.45L1417.57 392.45L1374.27 367.45L1374.27 317.45z" stroke="rgba(6, 80, 156, 0.93)" stroke-width="2"></path></g><defs><mask id="SvgjsMask1000"><rect width="1440" height="560" fill="#ffffff"></rect></mask></defs></svg>